<svg width="311" height="42" viewBox="0 0 311 42" fill="none" xmlns="http://www.w3.org/2000/svg">
<path d="M6.24 20.2717H17.792V23.0237H6.24V20.2717ZM6.56 32.0797H3.36V9.67974H19.168V12.4637H6.56V32.0797ZM29.8293 32.2717C28.3786 32.2717 27.0986 32.0051 25.9893 31.4717C24.9013 30.9384 24.0479 30.1277 23.4293 29.0397C22.8319 27.9304 22.5333 26.5437 22.5333 24.8797V15.1197H25.6053V24.5277C25.6053 26.1917 25.9999 27.4397 26.7893 28.2717C27.5999 29.1037 28.7306 29.5197 30.1813 29.5197C31.2479 29.5197 32.1759 29.3064 32.9653 28.8797C33.7546 28.4317 34.3626 27.7917 34.7893 26.9597C35.2159 26.1064 35.4293 25.0824 35.4293 23.8877V15.1197H38.5013V32.0797H35.5893V27.5037L36.0693 28.7197C35.5146 29.8504 34.6826 30.7251 33.5733 31.3437C32.4639 31.9624 31.2159 32.2717 29.8293 32.2717ZM44.3495 32.0797V15.1197H47.2935V19.7277L47.0055 18.5757C47.4748 17.4024 48.2642 16.5064 49.3735 15.8877C50.4828 15.2691 51.8482 14.9597 53.4695 14.9597V17.9357C53.3415 17.9144 53.2135 17.9037 53.0855 17.9037C52.9788 17.9037 52.8722 17.9037 52.7655 17.9037C51.1228 17.9037 49.8215 18.3944 48.8615 19.3757C47.9015 20.3571 47.4215 21.7757 47.4215 23.6317V32.0797H44.3495ZM66.3118 14.9597C67.6984 14.9597 68.9144 15.2264 69.9598 15.7597C71.0264 16.2931 71.8584 17.1037 72.4558 18.1917C73.0531 19.2797 73.3518 20.6557 73.3518 22.3197V32.0797H70.2798V22.6717C70.2798 21.0291 69.8744 19.7917 69.0638 18.9597C68.2744 18.1277 67.1544 17.7117 65.7038 17.7117C64.6158 17.7117 63.6664 17.9251 62.8558 18.3517C62.0451 18.7784 61.4158 19.4077 60.9678 20.2397C60.5411 21.0717 60.3278 22.1064 60.3278 23.3437V32.0797H57.2558V15.1197H60.1998V19.6957L59.7198 18.4797C60.2744 17.3704 61.1278 16.5064 62.2798 15.8877C63.4318 15.2691 64.7758 14.9597 66.3118 14.9597ZM79.037 32.0797V15.1197H82.109V32.0797H79.037ZM80.573 11.8557C79.9757 11.8557 79.4743 11.6637 79.069 11.2797C78.685 10.8957 78.493 10.4264 78.493 9.87174C78.493 9.29574 78.685 8.81574 79.069 8.43174C79.4743 8.04774 79.9757 7.85574 80.573 7.85574C81.1703 7.85574 81.661 8.04774 82.045 8.43174C82.4503 8.79441 82.653 9.25307 82.653 9.80774C82.653 10.3837 82.461 10.8744 82.077 11.2797C81.693 11.6637 81.1917 11.8557 80.573 11.8557ZM93.7985 32.2717C92.0918 32.2717 90.7692 31.8131 89.8305 30.8957C88.8918 29.9784 88.4225 28.6664 88.4225 26.9597V11.4077H91.4945V26.8317C91.4945 27.7491 91.7185 28.4531 92.1665 28.9437C92.6358 29.4344 93.2972 29.6797 94.1505 29.6797C95.1105 29.6797 95.9105 29.4131 96.5505 28.8797L97.5105 31.0877C97.0412 31.4931 96.4758 31.7917 95.8145 31.9837C95.1745 32.1757 94.5025 32.2717 93.7985 32.2717ZM85.5425 17.6477V15.1197H96.3585V17.6477H85.5425ZM108.361 32.2717C106.91 32.2717 105.63 32.0051 104.521 31.4717C103.433 30.9384 102.579 30.1277 101.961 29.0397C101.363 27.9304 101.065 26.5437 101.065 24.8797V15.1197H104.137V24.5277C104.137 26.1917 104.531 27.4397 105.321 28.2717C106.131 29.1037 107.262 29.5197 108.713 29.5197C109.779 29.5197 110.707 29.3064 111.497 28.8797C112.286 28.4317 112.894 27.7917 113.321 26.9597C113.747 26.1064 113.961 25.0824 113.961 23.8877V15.1197H117.033V32.0797H114.121V27.5037L114.601 28.7197C114.046 29.8504 113.214 30.7251 112.105 31.3437C110.995 31.9624 109.747 32.2717 108.361 32.2717ZM122.881 32.0797V15.1197H125.825V19.7277L125.537 18.5757C126.006 17.4024 126.795 16.5064 127.905 15.8877C129.014 15.2691 130.379 14.9597 132.001 14.9597V17.9357C131.873 17.9144 131.745 17.9037 131.617 17.9037C131.51 17.9037 131.403 17.9037 131.297 17.9037C129.654 17.9037 128.353 18.3944 127.393 19.3757C126.433 20.3571 125.953 21.7757 125.953 23.6317V32.0797H122.881ZM143.183 32.2717C141.369 32.2717 139.769 31.8984 138.383 31.1517C137.017 30.4051 135.951 29.3811 135.183 28.0797C134.436 26.7784 134.063 25.2851 134.063 23.5997C134.063 21.9144 134.425 20.4211 135.151 19.1197C135.897 17.8184 136.911 16.8051 138.191 16.0797C139.492 15.3331 140.953 14.9597 142.575 14.9597C144.217 14.9597 145.668 15.3224 146.927 16.0477C148.185 16.7731 149.167 17.7971 149.871 19.1197C150.596 20.4211 150.959 21.9464 150.959 23.6957C150.959 23.8237 150.948 23.9731 150.927 24.1437C150.927 24.3144 150.916 24.4744 150.895 24.6237H136.463V22.4157H149.295L148.047 23.1837C148.068 22.0957 147.844 21.1251 147.375 20.2717C146.905 19.4184 146.255 18.7571 145.423 18.2877C144.612 17.7971 143.663 17.5517 142.575 17.5517C141.508 17.5517 140.559 17.7971 139.727 18.2877C138.895 18.7571 138.244 19.4291 137.775 20.3037C137.305 21.1571 137.071 22.1384 137.071 23.2477V23.7597C137.071 24.8904 137.327 25.9037 137.839 26.7997C138.372 27.6744 139.108 28.3571 140.047 28.8477C140.985 29.3384 142.063 29.5837 143.279 29.5837C144.281 29.5837 145.188 29.4131 145.999 29.0717C146.831 28.7304 147.556 28.2184 148.175 27.5357L149.871 29.5197C149.103 30.4157 148.143 31.0984 146.991 31.5677C145.86 32.0371 144.591 32.2717 143.183 32.2717Z" fill="white"/>
<path fill-rule="evenodd" clip-rule="evenodd" d="M173.91 16.8959C173.514 16.9041 173.126 17.0013 172.773 17.1804C172.42 17.3595 172.112 17.6158 171.872 17.9304C171.631 18.2449 171.465 18.6095 171.385 18.9971C171.305 19.3848 171.314 19.7854 171.41 20.1693L173.743 29.3826C173.816 29.6693 173.982 29.9238 174.214 30.1061C174.447 30.2883 174.734 30.3879 175.03 30.3893H176.143L176.33 30.3759H180.477L180.677 30.3893H199.31L199.503 30.3759H203.65L203.837 30.3893H204.95C205.246 30.3898 205.534 30.2918 205.768 30.1108C206.002 29.9297 206.169 29.6759 206.243 29.3893L208.577 20.1693C208.673 19.7849 208.681 19.3836 208.601 18.9955C208.521 18.6074 208.354 18.2425 208.113 17.9278C207.872 17.6132 207.563 17.3569 207.21 17.1783C206.856 16.9996 206.466 16.9031 206.07 16.8959H206.023C205.439 16.8973 204.871 17.0933 204.41 17.453C203.949 17.8127 203.62 18.3157 203.477 18.8826L202.183 23.9693L201.93 24.9759H201.577V24.9893H178.403V24.9759H178.05L177.797 23.9759L176.51 18.8826C176.366 18.3146 176.037 17.8108 175.574 17.4509C175.112 17.0911 174.543 16.8958 173.957 16.8959H173.91ZM172.443 29.7159C172.589 30.2849 172.918 30.7899 173.379 31.1528C173.841 31.5156 174.41 31.7159 174.997 31.7226V33.0826C174.997 33.8159 175.597 34.4159 176.33 34.4159H180.477C180.83 34.4159 181.169 34.2755 181.42 34.0254C181.67 33.7754 181.81 33.4362 181.81 33.0826V31.7226H198.17V33.0826C198.17 33.8159 198.77 34.4159 199.503 34.4159H203.65C204.004 34.4159 204.343 34.2755 204.593 34.0254C204.843 33.7754 204.983 33.4362 204.983 33.0826V31.7226C205.571 31.7159 206.139 31.5156 206.601 31.1528C207.062 30.7899 207.391 30.2849 207.537 29.7159L209.87 20.4959C210.11 19.542 209.988 18.5328 209.526 17.6643C209.064 16.7958 208.295 16.1299 207.37 15.7959V15.7493L207.87 12.3159C207.956 11.7219 207.907 11.1162 207.727 10.5436C207.547 9.97103 207.24 9.44632 206.83 9.00836C206.419 8.57041 205.916 8.23043 205.356 8.01363C204.796 7.79682 204.195 7.70875 203.597 7.75594L196.503 8.31594C192.168 8.6586 187.812 8.6586 183.477 8.31594L176.383 7.75594C175.786 7.70981 175.185 7.79867 174.626 8.01594C174.067 8.23321 173.564 8.57334 173.155 9.01117C172.745 9.44899 172.439 9.97331 172.259 10.5454C172.08 11.1174 172.031 11.7225 172.117 12.3159L172.603 15.7493V15.7893C171.68 16.1271 170.916 16.7956 170.457 17.6652C169.999 18.5348 169.88 19.5436 170.123 20.4959L172.457 29.7159H172.443ZM176.33 33.0826V31.7226H180.477V33.0826H176.33ZM199.503 31.7226H203.65V33.0826H199.503V31.7226ZM202.183 18.5559L201.743 20.2759H178.23L177.803 18.5559C177.587 17.7001 177.091 16.941 176.394 16.3988C175.697 15.8566 174.84 15.5623 173.957 15.5626H173.93L173.43 12.1293C173.373 11.7329 173.405 11.3286 173.526 10.9465C173.646 10.5645 173.851 10.2144 174.125 9.92235C174.399 9.63029 174.735 9.40374 175.109 9.25952C175.483 9.1153 175.884 9.05711 176.283 9.08928L183.37 9.64928C187.777 10.0026 192.203 10.0026 196.61 9.64928L203.697 9.08928C204.096 9.05711 204.497 9.1153 204.871 9.25952C205.245 9.40374 205.581 9.63029 205.855 9.92235C206.129 10.2144 206.334 10.5645 206.454 10.9465C206.575 11.3286 206.607 11.7329 206.55 12.1293L206.05 15.5626H206.023C205.142 15.5638 204.286 15.8587 203.59 16.4008C202.895 16.9429 202.4 17.7012 202.183 18.5559ZM179.403 23.6426H200.577L201.163 21.6093H178.817L179.403 23.6426ZM182.497 15.5626C183.25 15.5626 183.857 14.9626 183.857 14.2159C183.857 13.4693 183.25 12.8693 182.497 12.8693C181.743 12.8693 181.13 13.4693 181.13 14.2159C181.13 14.9626 181.743 15.5626 182.497 15.5626ZM198.85 14.2159C198.85 14.9626 198.237 15.5626 197.483 15.5626C196.737 15.5626 196.123 14.9626 196.123 14.2159C196.123 13.4693 196.737 12.8693 197.483 12.8693C198.237 12.8693 198.85 13.4693 198.85 14.2159ZM189.99 15.5626C190.743 15.5626 191.35 14.9626 191.35 14.2159C191.35 13.4693 190.743 12.8693 189.99 12.8693C189.237 12.8693 188.63 13.4693 188.63 14.2159C188.63 14.9626 189.237 15.5626 189.99 15.5626Z" fill="white"/>
<path d="M236.878 32.3357C235.172 32.3357 233.54 32.0797 231.982 31.5677C230.425 31.0344 229.198 30.3517 228.302 29.5197L229.486 27.0237C230.34 27.7704 231.428 28.3891 232.75 28.8797C234.073 29.3704 235.449 29.6157 236.878 29.6157C238.18 29.6157 239.236 29.4664 240.046 29.1677C240.857 28.8691 241.454 28.4637 241.838 27.9517C242.222 27.4184 242.414 26.8211 242.414 26.1597C242.414 25.3917 242.158 24.7731 241.646 24.3037C241.156 23.8344 240.505 23.4611 239.694 23.1837C238.905 22.8851 238.03 22.6291 237.07 22.4157C236.11 22.2024 235.14 21.9571 234.158 21.6797C233.198 21.3811 232.313 21.0077 231.502 20.5597C230.713 20.1117 230.073 19.5144 229.582 18.7677C229.092 17.9997 228.846 17.0184 228.846 15.8237C228.846 14.6717 229.145 13.6157 229.742 12.6557C230.361 11.6744 231.3 10.8957 232.558 10.3197C233.838 9.72241 235.46 9.42374 237.422 9.42374C238.724 9.42374 240.014 9.59441 241.294 9.93574C242.574 10.2771 243.684 10.7677 244.622 11.4077L243.566 13.9677C242.606 13.3277 241.593 12.8691 240.526 12.5917C239.46 12.2931 238.425 12.1437 237.422 12.1437C236.164 12.1437 235.129 12.3037 234.318 12.6237C233.508 12.9437 232.91 13.3704 232.526 13.9037C232.164 14.4371 231.982 15.0344 231.982 15.6957C231.982 16.4851 232.228 17.1144 232.718 17.5837C233.23 18.0531 233.881 18.4264 234.67 18.7037C235.481 18.9811 236.366 19.2371 237.326 19.4717C238.286 19.6851 239.246 19.9304 240.206 20.2077C241.188 20.4851 242.073 20.8477 242.862 21.2957C243.673 21.7437 244.324 22.3411 244.814 23.0877C245.305 23.8344 245.55 24.7944 245.55 25.9677C245.55 27.0984 245.241 28.1544 244.622 29.1357C244.004 30.0957 243.044 30.8744 241.742 31.4717C240.462 32.0477 238.841 32.3357 236.878 32.3357ZM258.833 14.9597C260.22 14.9597 261.436 15.2264 262.481 15.7597C263.548 16.2931 264.38 17.1037 264.977 18.1917C265.575 19.2797 265.873 20.6557 265.873 22.3197V32.0797H262.801V22.6717C262.801 21.0291 262.396 19.7917 261.585 18.9597C260.796 18.1277 259.676 17.7117 258.225 17.7117C257.137 17.7117 256.188 17.9251 255.377 18.3517C254.567 18.7784 253.937 19.4077 253.489 20.2397C253.063 21.0717 252.849 22.1064 252.849 23.3437V32.0797H249.777V8.33574H252.849V19.6957L252.241 18.4797C252.796 17.3704 253.649 16.5064 254.801 15.8877C255.953 15.2691 257.297 14.9597 258.833 14.9597ZM278.822 32.2717C277.116 32.2717 275.601 31.8984 274.278 31.1517C272.956 30.4051 271.91 29.3811 271.142 28.0797C270.374 26.7571 269.99 25.2637 269.99 23.5997C269.99 21.9144 270.374 20.4211 271.142 19.1197C271.91 17.8184 272.956 16.8051 274.278 16.0797C275.601 15.3331 277.116 14.9597 278.822 14.9597C280.508 14.9597 282.012 15.3331 283.334 16.0797C284.678 16.8051 285.724 17.8184 286.47 19.1197C287.238 20.3997 287.622 21.8931 287.622 23.5997C287.622 25.2851 287.238 26.7784 286.47 28.0797C285.724 29.3811 284.678 30.4051 283.334 31.1517C282.012 31.8984 280.508 32.2717 278.822 32.2717ZM278.822 29.5837C279.91 29.5837 280.881 29.3384 281.734 28.8477C282.609 28.3571 283.292 27.6637 283.782 26.7677C284.273 25.8504 284.518 24.7944 284.518 23.5997C284.518 22.3837 284.273 21.3384 283.782 20.4637C283.292 19.5677 282.609 18.8744 281.734 18.3837C280.881 17.8931 279.91 17.6477 278.822 17.6477C277.734 17.6477 276.764 17.8931 275.91 18.3837C275.057 18.8744 274.374 19.5677 273.862 20.4637C273.35 21.3384 273.094 22.3837 273.094 23.5997C273.094 24.7944 273.35 25.8504 273.862 26.7677C274.374 27.6637 275.057 28.3571 275.91 28.8477C276.764 29.3384 277.734 29.5837 278.822 29.5837ZM300.863 32.2717C299.455 32.2717 298.164 31.9517 296.991 31.3117C295.839 30.6504 294.911 29.6797 294.207 28.3997C293.524 27.1197 293.183 25.5197 293.183 23.5997C293.183 21.6797 293.514 20.0797 294.175 18.7997C294.858 17.5197 295.775 16.5597 296.927 15.9197C298.1 15.2797 299.412 14.9597 300.863 14.9597C302.527 14.9597 303.999 15.3224 305.279 16.0477C306.559 16.7731 307.572 17.7864 308.319 19.0877C309.066 20.3677 309.439 21.8717 309.439 23.5997C309.439 25.3277 309.066 26.8424 308.319 28.1437C307.572 29.4451 306.559 30.4584 305.279 31.1837C303.999 31.9091 302.527 32.2717 300.863 32.2717ZM291.871 38.2877V15.1197H294.815V19.6957L294.623 23.6317L294.943 27.5677V38.2877H291.871ZM300.607 29.5837C301.695 29.5837 302.666 29.3384 303.519 28.8477C304.394 28.3571 305.076 27.6637 305.567 26.7677C306.079 25.8504 306.335 24.7944 306.335 23.5997C306.335 22.3837 306.079 21.3384 305.567 20.4637C305.076 19.5677 304.394 18.8744 303.519 18.3837C302.666 17.8931 301.695 17.6477 300.607 17.6477C299.54 17.6477 298.57 17.8931 297.695 18.3837C296.842 18.8744 296.159 19.5677 295.647 20.4637C295.156 21.3384 294.911 22.3837 294.911 23.5997C294.911 24.7944 295.156 25.8504 295.647 26.7677C296.159 27.6637 296.842 28.3571 297.695 28.8477C298.57 29.3384 299.54 29.5837 300.607 29.5837Z" fill="white"/>
</svg>
